<mxfile host="app.diagrams.net" modified="2023-07-02T10:08:32.294Z" agent="Mozilla/5.0 (Windows NT 10.0; Win64; x64; rv:109.0) Gecko/20100101 Firefox/114.0" etag="nmY1jbISIGgKIXrgba9O" version="21.5.2" type="github">
  <diagram name="Page-1" id="W8XmTFG-4LT9WNKKF-cE">
    <mxGraphModel dx="880" dy="465" grid="1" gridSize="10" guides="1" tooltips="1" connect="1" arrows="1" fold="1" page="1" pageScale="1" pageWidth="827" pageHeight="1169" math="0" shadow="0">
      <root>
        <mxCell id="0" />
        <mxCell id="1" parent="0" />
        <mxCell id="GcaTmOScdrcIieUAI6kn-5" value="Pendaftar" style="edgeStyle=orthogonalEdgeStyle;rounded=0;orthogonalLoop=1;jettySize=auto;html=1;exitX=1;exitY=0.25;exitDx=0;exitDy=0;entryX=1;entryY=0;entryDx=0;entryDy=0;" edge="1" parent="1" source="GcaTmOScdrcIieUAI6kn-1" target="GcaTmOScdrcIieUAI6kn-3">
          <mxGeometry relative="1" as="geometry" />
        </mxCell>
        <mxCell id="GcaTmOScdrcIieUAI6kn-6" value="Peminjaman" style="edgeStyle=orthogonalEdgeStyle;rounded=0;orthogonalLoop=1;jettySize=auto;html=1;entryX=0.5;entryY=0;entryDx=0;entryDy=0;" edge="1" parent="1" source="GcaTmOScdrcIieUAI6kn-1" target="GcaTmOScdrcIieUAI6kn-3">
          <mxGeometry relative="1" as="geometry" />
        </mxCell>
        <mxCell id="GcaTmOScdrcIieUAI6kn-7" value="Pengembalian" style="edgeStyle=orthogonalEdgeStyle;rounded=0;orthogonalLoop=1;jettySize=auto;html=1;exitX=1;exitY=0.75;exitDx=0;exitDy=0;entryX=0;entryY=0;entryDx=0;entryDy=0;" edge="1" parent="1" source="GcaTmOScdrcIieUAI6kn-1" target="GcaTmOScdrcIieUAI6kn-3">
          <mxGeometry relative="1" as="geometry" />
        </mxCell>
        <mxCell id="GcaTmOScdrcIieUAI6kn-1" value="Member Perpustakaan" style="rounded=0;whiteSpace=wrap;html=1;" vertex="1" parent="1">
          <mxGeometry x="80" y="120" width="120" height="60" as="geometry" />
        </mxCell>
        <mxCell id="GcaTmOScdrcIieUAI6kn-2" value="Pengurus Perpustakaan" style="rounded=0;whiteSpace=wrap;html=1;" vertex="1" parent="1">
          <mxGeometry x="530" y="160" width="120" height="60" as="geometry" />
        </mxCell>
        <mxCell id="GcaTmOScdrcIieUAI6kn-4" value="&lt;div&gt;Menerima&lt;/div&gt;&lt;div&gt;Peminjaman Buku&lt;br&gt;&lt;/div&gt;" style="edgeStyle=orthogonalEdgeStyle;rounded=0;orthogonalLoop=1;jettySize=auto;html=1;entryX=0.5;entryY=1;entryDx=0;entryDy=0;" edge="1" parent="1" source="GcaTmOScdrcIieUAI6kn-3" target="GcaTmOScdrcIieUAI6kn-1">
          <mxGeometry relative="1" as="geometry" />
        </mxCell>
        <mxCell id="GcaTmOScdrcIieUAI6kn-8" value="Mengirimkan Informasi" style="edgeStyle=orthogonalEdgeStyle;rounded=0;orthogonalLoop=1;jettySize=auto;html=1;entryX=0.5;entryY=1;entryDx=0;entryDy=0;" edge="1" parent="1" source="GcaTmOScdrcIieUAI6kn-3" target="GcaTmOScdrcIieUAI6kn-2">
          <mxGeometry x="-0.4" relative="1" as="geometry">
            <mxPoint as="offset" />
          </mxGeometry>
        </mxCell>
        <mxCell id="GcaTmOScdrcIieUAI6kn-3" value="&lt;div&gt;Sistem Aplikasi &lt;br&gt;&lt;/div&gt;&lt;div&gt;Perpustakaan&lt;br&gt;&lt;/div&gt;" style="ellipse;whiteSpace=wrap;html=1;" vertex="1" parent="1">
          <mxGeometry x="260" y="290" width="150" height="100" as="geometry" />
        </mxCell>
      </root>
    </mxGraphModel>
  </diagram>
</mxfile>
